<mxfile host="app.diagrams.net" agent="Mozilla/5.0 (Windows NT 10.0; Win64; x64) AppleWebKit/537.36 (KHTML, like Gecko) Chrome/133.0.0.0 Safari/537.36" version="26.0.16">
  <diagram name="Page-1" id="vW433zUYm0QIxQaejldK">
    <mxGraphModel dx="1434" dy="1880" grid="1" gridSize="10" guides="1" tooltips="1" connect="1" arrows="1" fold="1" page="1" pageScale="1" pageWidth="850" pageHeight="1100" math="0" shadow="0">
      <root>
        <mxCell id="0" />
        <mxCell id="1" parent="0" />
        <mxCell id="Wi2VunXBmhhHtSVMCbxE-4" style="edgeStyle=orthogonalEdgeStyle;rounded=0;orthogonalLoop=1;jettySize=auto;html=1;entryX=0.5;entryY=0;entryDx=0;entryDy=0;" edge="1" parent="1" source="Wi2VunXBmhhHtSVMCbxE-1" target="Wi2VunXBmhhHtSVMCbxE-2">
          <mxGeometry relative="1" as="geometry" />
        </mxCell>
        <mxCell id="Wi2VunXBmhhHtSVMCbxE-1" value="User Dashboard" style="ellipse;whiteSpace=wrap;html=1;" vertex="1" parent="1">
          <mxGeometry x="300" y="-270" width="120" height="80" as="geometry" />
        </mxCell>
        <mxCell id="Wi2VunXBmhhHtSVMCbxE-6" value="Yes" style="edgeStyle=orthogonalEdgeStyle;rounded=0;orthogonalLoop=1;jettySize=auto;html=1;entryX=0;entryY=0.5;entryDx=0;entryDy=0;" edge="1" parent="1" source="Wi2VunXBmhhHtSVMCbxE-2" target="Wi2VunXBmhhHtSVMCbxE-5">
          <mxGeometry relative="1" as="geometry" />
        </mxCell>
        <mxCell id="Wi2VunXBmhhHtSVMCbxE-8" value="No" style="edgeStyle=orthogonalEdgeStyle;rounded=0;orthogonalLoop=1;jettySize=auto;html=1;exitX=0.5;exitY=1;exitDx=0;exitDy=0;entryX=0.5;entryY=0;entryDx=0;entryDy=0;" edge="1" parent="1" source="Wi2VunXBmhhHtSVMCbxE-2" target="Wi2VunXBmhhHtSVMCbxE-7">
          <mxGeometry relative="1" as="geometry" />
        </mxCell>
        <mxCell id="Wi2VunXBmhhHtSVMCbxE-2" value="Add Transaction" style="rhombus;whiteSpace=wrap;html=1;" vertex="1" parent="1">
          <mxGeometry x="310" y="-70" width="100" height="90" as="geometry" />
        </mxCell>
        <mxCell id="Wi2VunXBmhhHtSVMCbxE-27" style="edgeStyle=orthogonalEdgeStyle;rounded=0;orthogonalLoop=1;jettySize=auto;html=1;entryX=0.5;entryY=0;entryDx=0;entryDy=0;" edge="1" parent="1" source="Wi2VunXBmhhHtSVMCbxE-5" target="Wi2VunXBmhhHtSVMCbxE-25">
          <mxGeometry relative="1" as="geometry" />
        </mxCell>
        <mxCell id="Wi2VunXBmhhHtSVMCbxE-5" value="Transaction Form" style="rounded=0;whiteSpace=wrap;html=1;" vertex="1" parent="1">
          <mxGeometry x="720" y="-55" width="120" height="60" as="geometry" />
        </mxCell>
        <mxCell id="Wi2VunXBmhhHtSVMCbxE-10" value="No" style="edgeStyle=orthogonalEdgeStyle;rounded=0;orthogonalLoop=1;jettySize=auto;html=1;exitX=0.5;exitY=1;exitDx=0;exitDy=0;entryX=0.5;entryY=0;entryDx=0;entryDy=0;" edge="1" parent="1" source="Wi2VunXBmhhHtSVMCbxE-7" target="Wi2VunXBmhhHtSVMCbxE-9">
          <mxGeometry relative="1" as="geometry" />
        </mxCell>
        <mxCell id="Wi2VunXBmhhHtSVMCbxE-23" value="Yes" style="edgeStyle=orthogonalEdgeStyle;rounded=0;orthogonalLoop=1;jettySize=auto;html=1;exitX=1;exitY=0.5;exitDx=0;exitDy=0;entryX=0;entryY=0.5;entryDx=0;entryDy=0;" edge="1" parent="1" source="Wi2VunXBmhhHtSVMCbxE-7" target="Wi2VunXBmhhHtSVMCbxE-11">
          <mxGeometry relative="1" as="geometry" />
        </mxCell>
        <mxCell id="Wi2VunXBmhhHtSVMCbxE-7" value="Edit Transaction" style="rhombus;whiteSpace=wrap;html=1;" vertex="1" parent="1">
          <mxGeometry x="315" y="90" width="90" height="90" as="geometry" />
        </mxCell>
        <mxCell id="Wi2VunXBmhhHtSVMCbxE-13" style="edgeStyle=orthogonalEdgeStyle;rounded=0;orthogonalLoop=1;jettySize=auto;html=1;exitX=0.5;exitY=1;exitDx=0;exitDy=0;" edge="1" parent="1" source="Wi2VunXBmhhHtSVMCbxE-9">
          <mxGeometry relative="1" as="geometry">
            <mxPoint x="360" y="430" as="targetPoint" />
          </mxGeometry>
        </mxCell>
        <mxCell id="Wi2VunXBmhhHtSVMCbxE-9" value="View Transactions" style="rounded=0;whiteSpace=wrap;html=1;" vertex="1" parent="1">
          <mxGeometry x="300" y="280" width="120" height="60" as="geometry" />
        </mxCell>
        <mxCell id="Wi2VunXBmhhHtSVMCbxE-26" style="edgeStyle=orthogonalEdgeStyle;rounded=0;orthogonalLoop=1;jettySize=auto;html=1;exitX=1;exitY=0.5;exitDx=0;exitDy=0;entryX=0;entryY=0.5;entryDx=0;entryDy=0;" edge="1" parent="1" source="Wi2VunXBmhhHtSVMCbxE-11" target="Wi2VunXBmhhHtSVMCbxE-25">
          <mxGeometry relative="1" as="geometry" />
        </mxCell>
        <mxCell id="Wi2VunXBmhhHtSVMCbxE-11" value="Edit Form" style="rounded=0;whiteSpace=wrap;html=1;" vertex="1" parent="1">
          <mxGeometry x="500" y="105" width="120" height="60" as="geometry" />
        </mxCell>
        <mxCell id="Wi2VunXBmhhHtSVMCbxE-17" value="No" style="edgeStyle=orthogonalEdgeStyle;rounded=0;orthogonalLoop=1;jettySize=auto;html=1;exitX=0;exitY=0.5;exitDx=0;exitDy=0;entryX=0;entryY=0.5;entryDx=0;entryDy=0;" edge="1" parent="1" source="Wi2VunXBmhhHtSVMCbxE-16" target="Wi2VunXBmhhHtSVMCbxE-1">
          <mxGeometry relative="1" as="geometry">
            <mxPoint x="-150" y="-50" as="targetPoint" />
            <Array as="points">
              <mxPoint x="190" y="470" />
              <mxPoint x="190" y="-230" />
            </Array>
          </mxGeometry>
        </mxCell>
        <mxCell id="Wi2VunXBmhhHtSVMCbxE-18" value="Yes" style="edgeStyle=orthogonalEdgeStyle;rounded=0;orthogonalLoop=1;jettySize=auto;html=1;exitX=0.5;exitY=1;exitDx=0;exitDy=0;" edge="1" parent="1" source="Wi2VunXBmhhHtSVMCbxE-16">
          <mxGeometry relative="1" as="geometry">
            <mxPoint x="360" y="620" as="targetPoint" />
          </mxGeometry>
        </mxCell>
        <mxCell id="Wi2VunXBmhhHtSVMCbxE-16" value="Delete Transaction" style="rhombus;whiteSpace=wrap;html=1;" vertex="1" parent="1">
          <mxGeometry x="320" y="430" width="80" height="80" as="geometry" />
        </mxCell>
        <mxCell id="Wi2VunXBmhhHtSVMCbxE-20" style="edgeStyle=orthogonalEdgeStyle;rounded=0;orthogonalLoop=1;jettySize=auto;html=1;" edge="1" parent="1" source="Wi2VunXBmhhHtSVMCbxE-19">
          <mxGeometry relative="1" as="geometry">
            <mxPoint x="360" y="730" as="targetPoint" />
          </mxGeometry>
        </mxCell>
        <mxCell id="Wi2VunXBmhhHtSVMCbxE-19" value="Delete Confirmation" style="rounded=0;whiteSpace=wrap;html=1;" vertex="1" parent="1">
          <mxGeometry x="300" y="620" width="120" height="50" as="geometry" />
        </mxCell>
        <mxCell id="Wi2VunXBmhhHtSVMCbxE-22" style="edgeStyle=orthogonalEdgeStyle;rounded=0;orthogonalLoop=1;jettySize=auto;html=1;exitX=1;exitY=0.5;exitDx=0;exitDy=0;entryX=1;entryY=0.5;entryDx=0;entryDy=0;" edge="1" parent="1" source="Wi2VunXBmhhHtSVMCbxE-21" target="Wi2VunXBmhhHtSVMCbxE-9">
          <mxGeometry relative="1" as="geometry" />
        </mxCell>
        <mxCell id="Wi2VunXBmhhHtSVMCbxE-21" value="Delete Transaction" style="rounded=0;whiteSpace=wrap;html=1;" vertex="1" parent="1">
          <mxGeometry x="300" y="730" width="120" height="60" as="geometry" />
        </mxCell>
        <mxCell id="Wi2VunXBmhhHtSVMCbxE-28" style="edgeStyle=orthogonalEdgeStyle;rounded=0;orthogonalLoop=1;jettySize=auto;html=1;exitX=0.5;exitY=1;exitDx=0;exitDy=0;entryX=1;entryY=0.5;entryDx=0;entryDy=0;" edge="1" parent="1" source="Wi2VunXBmhhHtSVMCbxE-25" target="Wi2VunXBmhhHtSVMCbxE-1">
          <mxGeometry relative="1" as="geometry">
            <mxPoint x="810" y="-260" as="targetPoint" />
            <Array as="points">
              <mxPoint x="780" y="185" />
              <mxPoint x="860" y="185" />
              <mxPoint x="860" y="-230" />
            </Array>
          </mxGeometry>
        </mxCell>
        <mxCell id="Wi2VunXBmhhHtSVMCbxE-25" value="Save Transaction" style="rounded=0;whiteSpace=wrap;html=1;" vertex="1" parent="1">
          <mxGeometry x="720" y="105" width="120" height="60" as="geometry" />
        </mxCell>
      </root>
    </mxGraphModel>
  </diagram>
</mxfile>
